<svg xmlns="http://www.w3.org/2000/svg" version="1.1" xmlns:xlink="http://www.w3.org/1999/xlink" xmlns:svgjs="http://svgjs.dev/svgjs" width="1000" height="1125" viewBox="0 0 1000 1125"><g transform="matrix(1,0,0,1,0,0)"><svg viewBox="0 0 320 360" data-background-color="#ffffff" preserveAspectRatio="xMidYMid meet" height="1125" width="1000" xmlns="http://www.w3.org/2000/svg" xmlns:xlink="http://www.w3.org/1999/xlink"><g id="tight-bounds" transform="matrix(1,0,0,1,0,0)"><svg viewBox="0 0 320 360" height="360" width="320"><g><svg></svg></g><g><svg viewBox="0 0 320 360" height="360" width="320"><g><path xmlns="http://www.w3.org/2000/svg" d="M165.217 303.356c-1.404-1.755-2.809-0.702-2.808-1.755-8.426 2.106-24.223-3.511-30.894-2.809 1.404-2.106-2.106-1.755-2.106-3.159-1.404 2.106-2.809 0-4.915 0.702-2.106-5.266-10.532-1.404-11.585-8.075-4.915 0-6.67-2.809-11.586-5.617 0.351-0.351 0.702-0.351 1.054-0.702-2.457-0.351-2.457-1.755-4.564-1.755l0.702-1.405c-3.862-0.702-5.266-6.67-10.883-8.776-1.755-0.351-5.617-6.319-7.723-7.724-1.053-0.702-2.809-0.702-0.352-1.053-0.351-0.351-0.351-1.053 0-1.404-2.457-0.702-2.809-2.809-5.968-3.862-0.351-1.053 0.702-1.755 0-2.457-0.702-0.351-1.755 0.351-2.457 0-0.351 6.319 6.67 7.021 8.777 12.287-0.702-0.702-1.755-2.809-2.458-1.404-0.351 1.053 2.809 4.915 2.809 2.808-1.053 0.702-1.404-1.053-0.703-1.404 1.053 1.755 3.16 1.404 3.16 2.809-1.053 1.053-2.457-1.053-2.106 0.702 3.16 1.755 2.809 3.511 4.563 5.968-1.404-1.755-1.755 1.404-3.159 0-0.351-5.266-6.319-4.213-6.319-9.479-0.702-1.755-1.404-0.351-2.458-1.053 1.404-1.404-4.213-6.319-4.213-4.564-1.755-2.106-0.702-2.809-1.053-4.213-1.404-0.351-0.351 1.404-1.404 0.351 1.404-2.457-1.755-5.617-3.862-8.074l1.405-0.702c-2.457-1.404-2.809-4.213-4.564-7.373-2.106 3.16 4.213 10.181 3.159 11.585 0 0.351 2.457 3.16 3.16 4.564 2.809 4.915 4.915 10.883 8.777 13.692-0.702-0.351-0.351-2.457 0.702-1.404 0 1.053-0.702 2.106-0.702 3.159 2.106 2.106 3.862 3.862 5.968 5.968-4.564-2.809-9.128-5.617-12.288-9.83 1.755-0.351 3.511 2.809 4.915 2.458-3.511-2.809-2.457-3.862-3.861-7.372-1.404-1.053 0.351 1.404-1.054 1.755-4.564-4.213-8.075-6.67-10.181-10.532 0.351-0.351 0.702-0.702 0.703-1.404-0.351-0.351-0.351-0.351-0.703-0.702 2.106 2.106 2.809 3.862 5.266 4.212-1.053-1.053 0-1.404-1.404-2.457-0.702-1.404-1.755 0.702-2.457-0.351 0.702-1.053 0-2.457 0-3.511-0.702 0-1.404 0-1.756-1.053-0.702-0.351-1.053 0-1.404 0.702-0.351-0.351-0.351-1.053-0.702-1.404v-0.351c-0.351-0.351-0.702-1.053-1.053-1.405-2.809-7.372-4.564-17.202-8.426-23.521 1.053-4.213-0.702-12.638-1.755-14.745 1.053-1.755 0.351-9.83-0.351-11.234-1.755 0.702 0.351 4.564-1.404 5.617-1.755-7.723 1.053-16.5 0.351-23.521 0.702 0 1.404 0 1.404-0.351-1.053-1.053 0.702-3.16 0.351-5.617 1.404-3.16-3.16 4.564-3.16 7.723-0.351 0.702-1.755 0-1.404 1.756 0 2.457 0.702 7.372-0.702 10.883-0.702 0-0.702-0.702-1.404-0.351-0.351 1.755-0.702 3.862-1.053 5.617-0.351-0.702-0.702-1.755-0.703-2.107-1.755-8.777 0-18.958-0.702-26.33 1.404 0 1.404-2.106 2.458-2.808-0.351 2.809-1.053 6.319 0.702 7.021 1.404-13.692 4.213-28.787 10.532-43.532 4.564-10.883 11.234-21.766 19.308-30.543 0.702 1.053-0.351 3.511 0 4.564 7.021-7.372 11.585-16.149 19.309-21.064 0.351 1.755-3.16 3.16-3.16 4.564 3.16-3.16 4.213-2.106 7.724-3.159 1.053-1.404-1.404 0-1.756-1.405 2.106-1.404 3.511-3.16 4.915-4.212 0 0.351-0.351 0.351-0.351 0.702 3.862-1.053 4.213-3.16 7.022-3.862-0.351-0.351-1.053-0.702-2.107-0.351 0.702-0.351 1.755-1.053 2.809-1.404-0.351 0-0.351 0.351-0.702 0.351 2.106-1.053 0.351 0.351 0.351 1.053 0.351 0 0.702-0.351 0.702-0.351-2.106 1.404-3.511 2.106-4.213 4.564 1.053-0.702 1.404 0 2.809-1.054 1.404-0.702-0.351-1.755 0.702-2.457 1.053 0.702 2.457 0.351 3.51 0.351 0-0.702 0.351-1.404 1.054-1.755 0.351-0.702 0-1.053-0.352-1.053 0.351-0.351 0.702-0.351 1.405-0.703 0 0 0.351 0 0.351 0.351 5.968-2.809 12.638-5.266 18.957-7.372 3.862-0.351 8.777-0.351 10.883-2.808-0.702 0-1.404 0.351-1.755 0 0.351 0 1.053-0.351 1.404-0.351 0.702 0.702 1.755 0 0.702 1.404 0.351 0 0.351 0 0.703-0.351 0 0.351 0 0.351 0.351 0.702 0.351 0 0.702-0.351 1.053-1.053 0.351 0 0.702 0 1.053-0.351l-0.351 0.351c2.809-0.702 5.266-0.351 9.128-1.054 0-0.351 0-0.702 0-1.053 0.702 0 1.053-0.351 1.755-0.351v0.351c1.404-0.702 2.809 0.702 2.808 0 0.351 0 0.351 0 0.703 0 0 0.702-0.351 1.053-0.351 1.405 1.755 0 2.809 0 3.51-1.054-0.351-0.351-0.702-0.351-1.053-0.351 0.702 0 1.404-0.351 2.106-0.702 1.053 0.351 1.404 0.702 1.405 2.107 1.755-3.16 7.372 0.702 9.829 0 1.053 0 0.702-1.404 1.405-2.107 0.351 0 0.702 0 1.053 0 1.755 1.404 4.213 2.809 7.372 3.16-2.809-0.702 0.351-1.053 0.702-1.405-0.702 0-0.702-0.351-0.702-0.702 1.053 0 2.106 0.351 3.16 0.351 0 0.702 0.351 1.053 1.053 1.054 0.702 0 0.702-0.351 0.702-1.054 1.053 0 1.755 0 2.809 0.351-0.351 1.404 1.755 1.755 2.457 2.809-2.809-0.702-5.968-1.755-7.021 0 11.234 2.457 23.521 5.968 35.457 11.936 0 0 0 0 0 0.351h0.352c2.106 1.053 4.213 2.106 6.319 3.16 1.404 0.702 2.457 1.404 3.861 2.457 0 0.351 0 0.702 0.703 0.702h0.351c1.404 1.053 2.809 1.755 4.212 2.809 1.404 2.106 2.809 4.915 5.266 4.213 5.266 8.075 10.883 11.234 15.447 19.659 0.351-1.404 1.404 3.16 3.16 3.511-2.809-0.351 1.755 1.755-1.053 1.404 2.457 2.457 3.16 3.511 3.51 6.319-0.702-1.404-1.053-1.755-1.404-0.351-0.351 2.106 2.457-0.351 3.511 1.756-2.106 0-1.404 1.404-1.054 3.159 1.053-1.053 0.702-2.106 1.756-1.755 1.404 1.404-0.702 1.755-0.351 2.809 1.053-1.404 1.404-0.702 2.808 0-1.755 0.351 1.053 2.809-1.053 1.755 1.404 1.755 1.755 2.809 1.053 4.564-1.404-2.106-0.351-3.511-2.457-3.16 4.213 3.511 2.106 11.585 7.021 12.287-3.16 0.702 0 2.106-1.755 2.458 2.106 0.702 1.053 3.511 3.51 4.213-0.351 1.755-1.053 2.809-1.404 4.563 1.053 1.404 1.404 4.213 3.16 4.564-1.053 1.053-0.351 3.862-1.404 4.915 1.404-0.702 2.106-0.702 3.159 0.702-1.755 1.404-0.351 2.809-1.404 3.16 3.16 8.075-0.702 24.575 1.053 30.894-2.106-1.053-1.404 2.457-2.808 2.457 2.457 1.053 0.351 2.809 1.404 4.564-4.915 2.809 0 10.532-6.67 12.287 0.702 4.915-2.106 7.021-4.213 12.288-0.351-0.351-0.351-0.702-0.702-1.054-0.351 2.457-1.755 2.809-1.054 4.915l-1.404-0.702c0 3.862-5.968 5.968-7.372 11.936-0.351 1.755-5.617 6.319-7.022 8.777-0.702 1.053-0.351 2.809-1.053 0.351-0.351 0.351-1.053 0.351-1.404 0.351-0.351 2.457-2.457 3.16-3.16 6.319-0.702 0.351-1.755-0.702-2.457 0.351 0 0.702 0.702 1.755 0.351 2.458 6.319-0.351 6.319-7.723 11.234-10.181-0.351 1.053-2.457 2.106-1.053 2.808 1.053 0 4.213-3.511 2.457-3.159 1.053 0.702-1.053 1.404-1.404 1.053 1.755-1.404 1.053-3.16 2.458-3.511 1.053 0.702-1.053 2.457 1.053 2.107 1.404-3.16 3.16-3.511 5.266-5.266-1.404 1.404 1.755 1.755 0.351 3.159-5.266 1.053-3.511 7.021-8.777 7.724-1.404 1.053-0.351 1.404-0.702 2.457-1.755-1.053-5.617 4.915-4.213 4.564-1.755 1.755-2.809 1.053-4.212 1.404-0.351 1.404 1.404 0.351 0.702 1.405-2.457-1.053-5.617 2.457-7.724 4.915l-1.053-1.054c-1.053 2.809-3.862 3.16-7.021 5.266 3.511 1.755 9.479-5.617 11.234-4.564 0.351 0 3.16-2.809 4.213-3.861 4.564-3.511 10.181-6.319 12.287-10.181-0.351 0.702-2.457 0.702-1.404-0.351 1.053-0.351 2.106 0.351 3.159 0.351 5.617-7.723 12.638-14.043 17.905-23.17 0.351-0.351 0.702-1.053 1.053-1.756-0.702 2.106-1.755 3.862-2.458 5.968-5.617 3.862-7.723 15.096-14.393 16.851 0.351 3.862-3.16 4.915-4.915 9.479-1.053 1.404-1.755-1.053-2.809 0.702 1.053 4.915-8.777 4.564-8.425 9.128-0.702 0.351-1.755 0.702-2.458 1.404h-0.351c-0.351 0.351-0.351 0.351-0.702 0.702-1.755 1.053-3.16 2.106-4.564 3.16-4.915 2.809-11.585 4.915-16.851 7.723v-0.351c-1.404 0.702-3.16 0.351-2.809 1.756-1.053 0.702-2.106 1.404-3.159 2.106-0.351 0-0.351 0-0.702 0 0 0-0.351-0.351-0.702-0.351-0.702 0-0.702 0-1.054 0.351-4.564 0.351-10.532 2.457-12.287 3.862-1.755-1.053-9.83 0.702-11.234 1.404 0.702 1.053 2.809 0 4.564 0-1.053 0.351-2.106 0.702-2.458 1.404-0.351 0-0.351 0-0.702 0-0.351-1.053-1.404 0-1.755-0.351h0.351c-0.351-1.404-1.404-2.106-3.16-1.755 0 0.702 0 1.053-0.351 1.755 0.702 0 2.809-1.053 2.809 0-0.351 0-0.351 0.351 0 0.351-0.702 0.702-1.755 0.702-2.458 1.054-1.404 0-3.16 0-4.563 0-0.351-0.351-0.702-0.351-1.405-0.703-0.351 0.351-1.053 0.351-1.404 0.703-2.106 0-4.564 0.351-6.319 0.702 0-0.702 0-1.404-0.702-1.405-1.053 1.404-3.16-0.351-5.617 0.352-2.457-0.702 1.404 1.053 4.915 1.755-0.351 0.351-0.702 0.702-1.756 1.053M116.068 308.271c-4.915-4.564-15.096-6.67-16.851-10.181-2.809-0.351-7.021-5.617-10.532-6.319 1.755 0 0.351-1.053 0-1.755-0.702 0.702-1.404 1.053-2.106 1.053 0-2.809-2.809-4.564-5.266-6.319 1.755 1.053 3.16 1.755 5.266 2.106 0-0.702 0-1.404 0.702-1.404 2.457 2.457 5.266 4.915 8.425 7.372 4.213 3.862 25.979 13.692 29.841 15.447 0 0-0.702 1.404-0.351 1.404 1.755 1.053 3.16-1.053 3.511 1.404-5.617 0.702-7.723-3.16-12.639-2.808M277.909 226.824v0.351 0c-0.351 0 0-0.351 0-0.351M136.079 64.281c-0.351 0.351-0.702 0.351-0.702 0.351 0-0.351 0.351-0.351 0.702-0.351M129.409 66.036c0 0.351 0 0.351 0 0 0 0.351 0 0.351 0 0 0 0.351 0 0 0 0M106.238 73.408v0c0.351-0.351 0.351-0.351 0.703-0.351-0.351 0-0.702 0.351-0.703 0.351M162.409 61.823c-0.702 0-1.053 0-1.404-0.351 0.351 0 0.702 0 1.053 0h0.351c0 0 0 0 0 0.351M168.728 62.525c-0.351-0.351-1.404-0.702-2.457-0.702 0-0.351 0.351-0.702 0.351-0.702 0.351 0 0.702 0 1.053 0 0 0 0.351 0 0.351 0.351 0 0 0 0 0-0.351 0.351 0 0.351 0 0.702 0 0.351 0.702 0.702 1.053 0 1.404M180.313 63.579c-1.755 0.351-2.809-0.351-4.564-1.405 1.053 0 2.457 0.351 3.511 0.702 0.351 0 0.702 0.351 1.053 0.703M305.292 113.43c-0.702 0.351-1.053 0.351-1.755-1.053-5.617-11.936-15.798-29.138-30.543-43.532-14.394-14.745-33.702-26.681-51.255-33.001 1.053 0.351 2.457 1.053 1.755 1.756-15.447-5.968-30.192-9.479-44.234-10.883-37.915-5.968-77.585 2.106-108.128 21.766 0.351 0.702 0.351 1.053-0.702 1.755-11.234 7.021-27.032 19.309-39.671 35.458-12.638 16.149-22.468 36.511-26.681 54.766 0.351-1.053 0.702-2.809 1.405-2.107-9.128 36.16-6.67 67.053 5.968 93.735 0.702-0.702-1.755-4.213 0.351-3.862 1.404 3.862 3.16 8.075 5.266 11.936 2.457 5.617 5.266 12.989 9.128 14.745-9.83-19.309-16.5-41.426-17.203-61.085 1.404 2.809 1.053 8.777 3.16 11.234 0.702-13.34-2.457-31.245 2.106-43.883-1.053 6.67-1.755 15.798-1.053 24.925 0 6.67 3.16 25.277 5.266 27.032-0.351-0.351-0.351-2.106 0-2.106 1.053 2.106-1.404 3.16 0.351 3.511 0-0.702 0.351-0.702 0.702-0.703 3.511 7.723 8.075 19.66 11.585 25.628 4.213 7.723 9.83 14.745 16.149 21.064 0 0.351 0.351 0.351 0.352 0.702 0.702 1.755 3.16 3.862 3.861 5.266 0.351 0.702-0.351 1.755 0 2.458 5.266 9.83 12.989 19.66 22.468 27.383 5.968 7.021 15.447 14.394 27.032 20.713 11.234 5.968 24.223 10.883 36.16 13.691 8.426 2.106 18.606 2.457 24.926 3.862 8.426 1.755 23.17-0.702 30.542-2.107 44.234-6.67 88.117-36.862 110.235-80.393 22.819-43.883 22.117-97.596 2.457-138.671" fill="#0063db" fill-rule="nonzero" stroke="none" stroke-width="1" stroke-linecap="butt" stroke-linejoin="miter" stroke-miterlimit="10" stroke-dasharray="" stroke-dashoffset="0" font-family="none" font-weight="none" font-size="none" text-anchor="none" style="mix-blend-mode: normal" data-fill-palette-color="tertiary"></path></g><g transform="matrix(1,0,0,1,80,163.0562414266118)"><svg viewBox="0 0 160 33.8875171467764" height="33.8875171467764" width="160"><g><svg viewBox="0 0 160 33.8875171467764" height="33.8875171467764" width="160"><g><svg viewBox="0 0 160 33.8875171467764" height="33.8875171467764" width="160"><g><svg viewBox="0 0 160 33.8875171467764" height="33.8875171467764" width="160"><g id="textblocktransform"><svg viewBox="0 0 160 33.8875171467764" height="33.8875171467764" width="160" id="textblock"><g><svg viewBox="0 0 160 33.8875171467764" height="33.8875171467764" width="160"><g transform="matrix(1,0,0,1,0,0)"><svg width="160" viewBox="1.850000023841858 -38.099998474121094 185.239990234375 38.69999694824219" height="33.8875171467764" data-palette-color="#0063db"><path d="M1.85 0L1.85-2.7 15.6-22.9 6.6-22.9 6.6-18.3 2.25-18.3 2.25-26.1 23.4-26.1 23.4-23.4 9.65-3.15 19.45-3.15 19.45-7.8 23.8-7.8 23.8 0 1.85 0ZM39.5 0.6L39.5 0.6Q36.5 0.6 34.17-0.4 31.85-1.4 30.25-3.23 28.65-5.05 27.82-7.58 27-10.1 27-13.1L27-13.1Q27-16.2 27.87-18.73 28.75-21.25 30.35-23.03 31.95-24.8 34.17-25.75 36.4-26.7 39.1-26.7L39.1-26.7Q41.8-26.7 43.97-25.83 46.15-24.95 47.67-23.35 49.2-21.75 50.02-19.53 50.85-17.3 50.85-14.55L50.85-14.55 50.85-13 34.05-13 34.05-11.2Q34.05-7.6 35.92-5.68 37.8-3.75 40.85-3.75L40.85-3.75Q43.65-3.75 45.35-5 47.05-6.25 47.85-8.1L47.85-8.1 50.3-6.6Q49.85-5.35 48.97-4.08 48.1-2.8 46.77-1.75 45.45-0.7 43.65-0.05 41.85 0.6 39.5 0.6ZM34.05-16.6L34.05-15.9 44.05-15.9 44.05-16.55Q44.05-20.15 42.77-21.85 41.5-23.55 39.1-23.55L39.1-23.55Q36.7-23.55 35.37-21.88 34.05-20.2 34.05-16.6L34.05-16.6ZM54.84 0L54.84-3 58.05-3 58.05-21.55 54.84-22.2 54.84-24.7 64.5-26.7 64.5-21.85 64.75-21.85Q65.09-22.8 65.72-23.68 66.34-24.55 67.25-25.23 68.15-25.9 69.37-26.3 70.59-26.7 72.15-26.7L72.15-26.7Q75.45-26.7 77.3-25.45 79.15-24.2 79.84-21.7L79.84-21.7 80.05-21.7Q80.45-22.65 81.12-23.55 81.8-24.45 82.77-25.15 83.75-25.85 85.02-26.28 86.3-26.7 87.94-26.7L87.94-26.7Q92.55-26.7 94.47-24.28 96.4-21.85 96.4-17L96.4-17 96.4-3 99.59-3 99.59 0 86.94 0 86.94-3 89.84-3 89.84-16.7Q89.84-19.65 88.8-20.98 87.75-22.3 85.34-22.3L85.34-22.3Q84.45-22.3 83.57-22.05 82.7-21.8 82.02-21.28 81.34-20.75 80.92-19.93 80.5-19.1 80.5-18L80.5-18 80.5-3 83.4-3 83.4 0 71.05 0 71.05-3 73.95-3 73.95-16.7Q73.95-19.65 72.92-20.98 71.9-22.3 69.55-22.3L69.55-22.3Q68.59-22.3 67.7-22.05 66.8-21.8 66.12-21.28 65.45-20.75 65.02-19.93 64.59-19.1 64.59-18L64.59-18 64.59-3 67.5-3 67.5 0 54.84 0ZM102.99 0L102.99-3 106.19-3 106.19-22.9 102.99-22.9 102.99-26.1 106.19-26.1 106.19-28.7Q106.19-33.1 108.92-35.55 111.64-38 116.34-38L116.34-38Q119.64-38 121.27-36.6 122.89-35.2 122.89-33.3L122.89-33.3Q122.89-31.75 122.04-30.83 121.19-29.9 119.74-29.9L119.74-29.9Q118.24-29.9 117.44-30.75 116.64-31.6 116.64-32.8L116.64-32.8Q116.64-33.75 117.04-34.3 117.44-34.85 117.94-35.1L117.94-35.1 117.94-35.35Q117.69-35.4 117.32-35.43 116.94-35.45 116.59-35.45L116.59-35.45Q112.74-35.45 112.74-29.85L112.74-29.85 112.74-26.1 117.94-26.1 117.94-22.9 112.74-22.9 112.74-3 116.94-3 116.94 0 102.99 0ZM128.69-30.25L128.69-30.25Q126.84-30.25 125.82-31.3 124.79-32.35 124.79-34.05L124.79-34.05 124.79-34.3Q124.79-36 125.82-37.05 126.84-38.1 128.69-38.1L128.69-38.1Q130.54-38.1 131.56-37.05 132.59-36 132.59-34.3L132.59-34.3 132.59-34.05Q132.59-32.35 131.56-31.3 130.54-30.25 128.69-30.25ZM122.24 0L122.24-3 125.44-3 125.44-21.55 122.24-22.2 122.24-24.7 131.99-26.7 131.99-3 135.19-3 135.19 0 122.24 0ZM138.69 0L138.69-3 141.89-3 141.89-21.55 138.69-22.2 138.69-24.7 148.34-26.7 148.34-21.85 148.59-21.85Q148.94-22.8 149.49-23.68 150.04-24.55 150.81-25.23 151.59-25.9 152.59-26.3 153.59-26.7 154.84-26.7L154.84-26.7Q157.24-26.7 158.61-25.45 159.99-24.2 159.99-22L159.99-22Q159.99-20.1 159.04-19.05 158.09-18 156.39-18L156.39-18Q154.69-18 153.79-18.9 152.89-19.8 152.89-21.1L152.89-21.1Q152.89-21.8 153.19-22.35 153.49-22.9 153.89-23.05L153.89-23.05 153.89-23.25Q153.69-23.3 153.19-23.3L153.19-23.3Q152.34-23.3 151.49-22.83 150.64-22.35 149.96-21.63 149.29-20.9 148.86-20 148.44-19.1 148.44-18.2L148.44-18.2 148.44-3 152.64-3 152.64 0 138.69 0ZM170.29 0.6L170.29 0.6Q166.24 0.6 164.29-1.35 162.34-3.3 162.34-6.75L162.34-6.75Q162.34-10.55 165.11-12.5 167.89-14.45 173.79-14.45L173.79-14.45 177.34-14.45 177.34-17.6Q177.34-20.65 176.09-22.23 174.84-23.8 171.99-23.8L171.99-23.8Q169.79-23.8 168.59-23.15L168.59-23.15 168.59-22.95Q169.09-22.65 169.56-22.03 170.04-21.4 170.04-20.3L170.04-20.3Q170.04-18.85 169.16-17.93 168.29-17 166.59-17L166.59-17Q165.14-17 164.21-17.95 163.29-18.9 163.29-20.45L163.29-20.45Q163.29-21.65 163.96-22.78 164.64-23.9 165.99-24.78 167.34-25.65 169.31-26.18 171.29-26.7 173.89-26.7L173.89-26.7Q178.89-26.7 181.39-24.43 183.89-22.15 183.89-18.05L183.89-18.05 183.89-2.95 187.09-2.95 187.09-0.45Q186.34 0.05 185.09 0.33 183.84 0.6 182.54 0.6L182.54 0.6Q180.04 0.6 178.94-0.63 177.84-1.85 177.84-3.75L177.84-3.75 177.84-3.9 177.59-3.9Q177.24-3.05 176.69-2.25 176.14-1.45 175.29-0.83 174.44-0.2 173.21 0.2 171.99 0.6 170.29 0.6ZM172.84-3.4L172.84-3.4Q174.84-3.4 176.09-4.35 177.34-5.3 177.34-7.55L177.34-7.55 177.34-11.75 174.49-11.75Q171.49-11.75 170.21-10.68 168.94-9.6 168.94-7.6L168.94-7.6 168.94-6.7Q168.94-5 170.01-4.2 171.09-3.4 172.84-3.4Z" opacity="1" transform="matrix(1,0,0,1,0,0)" fill="#0063db" class="wordmark-text-0" data-fill-palette-color="primary" id="text-0"></path></svg></g></svg></g></svg></g></svg></g><g></g></svg></g></svg></g></svg></g></svg></g><defs></defs></svg><rect width="320" height="360" fill="none" stroke="none" visibility="hidden"></rect></g></svg></g></svg>